<?xml version="1.0" standalone="no"?>
<!DOCTYPE svg PUBLIC "-//W3C//DTD SVG 20010904//EN"
 "http://www.w3.org/TR/2001/REC-SVG-20010904/DTD/svg10.dtd">
<svg class="marker-dot" version="1.0" xmlns="http://www.w3.org/2000/svg"
 width="12.000000pt" height="12.000000pt" viewBox="0 0 225.000000 225.000000"
 preserveAspectRatio="xMidYMid meet">
<metadata>
Created by potrace 1.16, written by Peter Selinger 2001-2019
</metadata>
<g transform="translate(0.000000,225.000000) scale(0.100000,-0.100000)"
fill="#693CA5" stroke="none">
<path d="M985 2240 c-272 -39 -487 -149 -675 -346 -361 -378 -409 -947 -119
-1394 62 -96 238 -265 340 -328 108 -66 231 -116 351 -144 131 -30 355 -30
486 0 120 28 243 78 351 144 102 63 278 232 340 328 290 447 242 1016 -119
1394 -162 170 -350 278 -568 327 -100 22 -299 32 -387 19z"/>
</g>
</svg>
