<?xml version="1.0" standalone="no"?>
<!DOCTYPE svg PUBLIC "-//W3C//DTD SVG 20010904//EN"
 "http://www.w3.org/TR/2001/REC-SVG-20010904/DTD/svg10.dtd">
<svg version="1.0" xmlns="http://www.w3.org/2000/svg"
 width="200.000000pt" height="200.000000pt" viewBox="0 0 200.000000 200.000000"
 preserveAspectRatio="xMidYMid meet">
<metadata>
Created by potrace 1.16, written by Peter Selinger 2001-2019
</metadata>
<g transform="translate(0.000000,200.000000) scale(0.100000,-0.100000)"
fill="white" stroke="none">
<path d="M1273 1886 c-101 -33 -190 -113 -241 -216 -25 -50 -27 -65 -27 -170
0 -107 2 -119 29 -175 38 -77 114 -153 191 -191 56 -27 68 -29 175 -29 107 0
119 2 175 29 77 38 153 114 191 191 27 56 29 68 29 175 0 107 -2 119 -29 175
-38 77 -115 153 -191 190 -52 25 -74 29 -160 32 -65 2 -115 -2 -142 -11z m233
-113 c66 -22 145 -101 167 -167 22 -63 22 -149 0 -212 -22 -66 -101 -145 -167
-167 -114 -39 -231 -14 -312 67 -115 116 -115 297 1 412 30 30 68 57 95 67 60
21 155 21 216 0z"/>
<path d="M1362 1688 c-8 -8 -12 -48 -12 -113 0 -65 4 -105 12 -113 16 -16 160
-16 176 0 7 7 12 24 12 38 0 36 -17 50 -62 50 l-38 0 0 63 c0 69 -10 87 -50
87 -14 0 -31 -5 -38 -12z"/>
<path d="M448 1281 c-214 -69 -348 -254 -348 -481 0 -227 136 -415 348 -480
105 -33 280 -24 358 18 18 10 31 0 115 -85 135 -136 159 -153 228 -153 97 0
151 54 151 151 0 69 -17 93 -153 228 -85 84 -95 97 -85 115 42 78 51 253 18
358 -48 156 -172 280 -329 328 -83 26 -223 26 -303 1z m315 -124 c74 -34 160
-119 195 -194 24 -52 27 -70 27 -163 0 -93 -3 -111 -27 -163 -35 -74 -121
-160 -195 -195 -52 -24 -70 -27 -163 -27 -93 0 -111 3 -163 27 -74 35 -160
121 -195 195 -24 52 -27 70 -27 163 0 93 3 111 26 160 48 101 130 176 232 212
78 28 213 21 290 -15z m330 -785 c85 -86 98 -103 95 -128 -2 -24 -8 -29 -33
-32 -26 -2 -43 10 -130 97 l-99 101 29 30 c16 16 31 30 35 30 3 0 50 -44 103
-98z"/>
<path d="M366 931 c-46 -31 -66 -69 -66 -131 0 -95 55 -150 148 -150 63 0 105
21 134 68 19 31 21 32 94 32 l74 0 0 -38 c0 -45 14 -62 50 -62 35 0 50 17 50
60 0 27 5 38 23 45 14 6 23 21 25 38 6 52 -7 57 -158 57 l-138 0 -20 33 c-12
17 -34 40 -50 50 -41 24 -128 23 -166 -2z"/>
<path d="M1566 981 c-46 -30 -66 -70 -66 -128 l0 -53 -38 0 c-21 0 -43 -5 -50
-12 -17 -17 -17 -359 0 -376 17 -17 459 -17 476 0 17 17 17 359 0 376 -7 7
-29 12 -50 12 l-38 0 0 53 c0 92 -56 147 -150 147 -37 0 -64 -6 -84 -19z m234
-381 l0 -100 -150 0 -150 0 0 100 0 100 150 0 150 0 0 -100z"/>
</g>
</svg>
