<?xml version="1.0" standalone="no"?>
<!DOCTYPE svg PUBLIC "-//W3C//DTD SVG 20010904//EN"
 "http://www.w3.org/TR/2001/REC-SVG-20010904/DTD/svg10.dtd">
<svg version="1.0" xmlns="http://www.w3.org/2000/svg"
 width="200.000000pt" height="200.000000pt" viewBox="0 0 200.000000 200.000000"
 preserveAspectRatio="xMidYMid meet">
<metadata>
Created by potrace 1.16, written by Peter Selinger 2001-2019
</metadata>
<g transform="translate(0.000000,200.000000) scale(0.100000,-0.100000)"
fill="white" stroke="none">
<path d="M1283 1905 c-17 -7 -34 -22 -38 -34 -3 -11 -28 -36 -55 -55 -121 -87
-163 -258 -96 -389 15 -27 26 -62 26 -78 0 -80 124 -105 153 -30 6 18 22 32
42 40 43 15 99 73 126 130 30 63 36 162 14 221 -9 25 -18 65 -19 90 -3 56 -18
86 -56 105 -35 18 -55 18 -97 0z m82 -56 c13 -13 18 -32 17 -56 -2 -20 5 -52
14 -72 56 -118 -6 -286 -118 -323 -31 -11 -44 -21 -48 -39 -4 -17 -13 -24 -30
-24 -22 0 -25 4 -22 33 2 24 -5 42 -22 63 -26 31 -46 86 -46 130 0 82 62 193
124 223 21 10 40 25 43 34 18 51 58 65 88 31z"/>
<path d="M1191 1714 c-36 -55 -54 -130 -49 -199 3 -43 6 -50 26 -53 21 -3 22
0 22 55 0 72 13 120 46 168 27 41 28 68 2 73 -12 2 -28 -12 -47 -44z"/>
<path d="M432 1837 c-23 -28 -53 -113 -59 -168 -5 -50 -2 -66 22 -114 25 -51
109 -135 135 -135 5 0 23 -26 40 -59 41 -76 83 -126 98 -117 18 11 14 37 -9
71 -11 17 -29 47 -40 69 l-21 38 27 61 c52 115 34 218 -52 298 -70 66 -118 84
-141 56z m85 -76 c56 -41 87 -94 87 -150 0 -49 -20 -121 -34 -121 -8 0 -43 90
-60 158 -8 32 -16 42 -31 42 -31 0 -32 -20 -5 -104 24 -75 24 -77 4 -59 -27
23 -57 90 -58 125 0 32 38 138 49 138 4 0 26 -13 48 -29z"/>
<path d="M803 1824 c-3 -8 -3 -45 0 -82 l6 -67 -32 68 c-25 53 -36 67 -52 65
-22 -3 -33 -33 -34 -94 -1 -50 14 -99 44 -139 l21 -30 -23 -34 c-16 -23 -23
-48 -23 -79 0 -40 16 -73 136 -278 110 -191 140 -235 161 -241 20 -5 31 -1 45
17 16 20 18 35 14 99 -3 42 -8 162 -12 266 -4 139 -10 199 -21 222 -15 33 -68
73 -96 73 -12 0 -15 12 -14 58 0 62 -22 116 -66 165 -29 31 -45 34 -54 11z
m168 -313 c21 -21 29 -39 29 -63 0 -31 -3 -35 -37 -44 -29 -7 -39 -15 -41 -33
-4 -23 -1 -24 37 -18 39 5 41 4 45 -26 3 -18 7 -105 9 -195 5 -178 7 -174 -51
-71 -38 67 -39 77 -9 81 14 2 23 11 25 27 4 23 2 24 -42 18 -43 -6 -47 -5 -61
22 -14 28 -14 29 10 35 16 4 25 13 25 27 0 25 -19 33 -53 20 -25 -10 -28 -8
-47 29 -24 48 -24 46 0 53 12 3 20 14 20 27 0 20 -4 22 -35 17 -33 -5 -35 -4
-35 23 0 35 36 71 87 87 64 19 92 16 124 -16z"/>
<path d="M1566 1801 c-11 -12 -18 -36 -18 -58 0 -85 116 -113 151 -36 16 35
14 57 -10 87 -26 33 -96 37 -123 7z"/>
<path d="M225 1725 c-52 -51 -17 -135 56 -135 52 0 79 27 79 79 0 73 -84 108
-135 56z"/>
<path d="M1703 1570 c-260 -68 -369 -205 -378 -474 l-4 -109 -75 -44 c-70 -40
-90 -63 -68 -77 5 -3 50 -11 100 -17 51 -7 92 -16 92 -21 0 -4 -148 -8 -330
-8 -181 0 -330 2 -330 4 0 3 9 21 21 40 11 19 23 59 26 89 11 110 -46 205
-154 253 -61 26 -164 97 -202 138 -16 17 -35 26 -55 26 -24 0 -36 8 -56 36
-14 22 -23 48 -22 63 2 16 -6 38 -18 54 -30 38 -76 37 -121 -3 -84 -73 -82
-70 -75 -102 9 -43 23 -57 65 -64 43 -7 81 -53 81 -98 0 -15 8 -43 19 -64 29
-58 50 -130 61 -211 6 -41 18 -89 27 -105 11 -22 15 -53 14 -102 -6 -217 133
-428 347 -526 195 -89 483 -92 687 -7 218 91 365 303 365 524 l0 55 -101 0
c-96 0 -100 1 -97 21 2 14 19 28 53 42 202 87 301 195 326 357 12 81 2 204
-26 298 l-16 52 -42 -1 c-23 0 -74 -9 -114 -19z m126 -62 c14 -39 37 -225 29
-233 -7 -8 -94 32 -155 71 -56 36 -133 102 -133 114 0 13 183 74 237 79 6 1
16 -14 22 -31z m-78 -247 l96 -47 -18 -50 c-33 -87 -130 -170 -269 -231 -71
-31 -75 -34 -84 -73 -10 -47 -28 -51 -53 -12 -23 36 -32 42 -68 42 -16 0 -40
3 -53 7 -22 5 -20 8 24 34 l48 28 2 118 c3 153 25 230 90 302 l45 50 72 -60
c41 -35 113 -81 168 -108z m-1365 28 c39 -42 101 -83 182 -124 76 -37 104 -64
127 -117 27 -66 12 -143 -37 -195 -20 -21 -30 -23 -140 -23 l-118 0 -29 41
c-18 25 -32 59 -36 87 -13 100 -28 160 -57 230 -17 41 -27 77 -22 81 35 30 69
51 83 51 10 0 30 -14 47 -31z m1284 -549 l0 -40 -650 0 -650 0 0 40 0 40 650
0 650 0 0 -40z m-19 -107 c-50 -172 -183 -302 -380 -371 -71 -25 -87 -27 -251
-27 -166 0 -179 2 -255 28 -193 68 -327 200 -375 368 l-9 29 639 0 639 0 -8
-27z"/>
<path d="M1173 1213 c-56 -11 -73 -106 -27 -142 31 -25 55 -26 93 -6 47 24 56
78 19 119 -25 27 -51 35 -85 29z"/>
<path d="M825 988 c-31 -17 -45 -39 -45 -74 0 -49 30 -79 80 -79 49 0 80 29
80 75 0 42 -9 59 -41 75 -33 18 -47 18 -74 3z"/>
</g>
</svg>
