<?xml version="1.0" encoding="UTF-8"?>
<svg width="27px" height="34px" viewBox="0 0 27 34" version="1.1" xmlns="http://www.w3.org/2000/svg" xmlns:xlink="http://www.w3.org/1999/xlink">
    <title>80AEA8EF-923C-49B2-9A81-461015DCBBD2@3x</title>
    <g id="UI-on-UX-V4" stroke="none" stroke-width="1" fill-rule="evenodd">
        <g id="Icons" transform="translate(-188.000000, -124.000000)" fill="#332504" fill-rule="nonzero">
            <g id="Group" transform="translate(112.000000, 109.000000)">
                <g id="Group-2">
                    <g id="Group-7">
                        <path fill="white" d="M92.7926829,15 C94.0125924,15 95.0111485,15.923222 95.0922436,17.0915572 L95.097561,17.245283 L95.097,17.566 L100.365854,17.5660377 C101.764699,17.5660377 102.908873,18.628218 102.994818,19.9697952 L103,20.1320755 L103,46.4339623 C103,47.7966387 101.909627,48.9112297 100.532441,48.9949516 L100.365854,49 L78.6341463,49 C77.2353013,49 76.0911265,47.9378197 76.0051824,46.5962425 L76,46.4339623 L76,20.1320755 C76,18.769399 77.090373,17.6548081 78.4675588,17.5710861 L78.6341463,17.5660377 L83.902,17.566 L83.902439,17.245283 C83.902439,16.0569156 84.8501655,15.0841782 86.049511,15.0051799 L86.2073171,15 L92.7926829,15 Z M83.243,18.8490377 L78.6341463,18.8490566 C77.9522094,18.8490566 77.3913204,19.3539242 77.3238731,20.0008942 L77.3170732,20.1320755 L77.3170732,46.4339623 C77.3170732,47.098267 77.8353411,47.6446537 78.4994833,47.7103571 L78.6341463,47.7169811 L100.365854,47.7169811 C101.047791,47.7169811 101.60868,47.2121136 101.676127,46.5651435 L101.682927,46.4339623 L101.682927,20.1320755 C101.682927,19.4234837 101.093253,18.8490566 100.365854,18.8490566 L95.756,18.8490377 L95.7560976,21.0943396 C95.7560976,21.9334614 95.0945522,22.6220661 94.2518087,22.6922264 L94.1097561,22.6981132 L84.8902439,22.6981132 C84.0288498,22.6981132 83.321968,22.0536728 83.2499455,21.2327193 L83.2439024,21.0943396 L83.243,18.8490377 Z M96.9214542,40.1894501 C97.1679074,40.4115264 97.2006958,40.7744422 97.0100346,41.0335273 L96.9577085,41.0959938 L93.955175,44.2580265 C93.7149881,44.5109726 93.3173656,44.5311484 93.0521541,44.316948 L92.9934339,44.2633559 L91.5458388,42.773234 C91.2958491,42.5159002 91.3073396,42.1098731 91.5715036,41.8663472 C91.8153474,41.641554 92.1892511,41.6337998 92.4419556,41.836337 L92.5024613,41.8913485 L93.4657073,42.8835909 L95.9908488,40.224767 C96.2378171,39.9646794 96.6544633,39.9488675 96.9214542,40.1894501 Z M88.8514634,41.3018868 C89.0277904,41.3018868 89.1707317,41.4448281 89.1707317,41.6211551 L89.1707317,42.9071468 C89.1707317,43.0834738 89.0277904,43.2264151 88.8514634,43.2264151 L80.9290244,43.2264151 C80.7526974,43.2264151 80.6097561,43.0834738 80.6097561,42.9071468 L80.6097561,41.6211551 C80.6097561,41.4448281 80.7526974,41.3018868 80.9290244,41.3018868 L88.8514634,41.3018868 Z M96.9214542,35.0573747 C97.1679074,35.2794509 97.2006958,35.6423667 97.0100346,35.9014518 L96.9577085,35.9639183 L93.955175,39.1259511 C93.7149881,39.3788971 93.3173656,39.399073 93.0521541,39.1848725 L92.9934339,39.1312804 L91.5458388,37.6411585 C91.2958491,37.3838247 91.3073396,36.9777977 91.5715036,36.7342717 C91.8153474,36.5094785 92.1892511,36.5017243 92.4419556,36.7042615 L92.5024613,36.759273 L93.4657073,37.7515154 L95.9908488,35.0926915 C96.2378171,34.8326039 96.6544633,34.816792 96.9214542,35.0573747 Z M88.8514634,36.1698113 C89.0277904,36.1698113 89.1707317,36.3127526 89.1707317,36.4890796 L89.1707317,37.7750713 C89.1707317,37.9513983 89.0277904,38.0943396 88.8514634,38.0943396 L80.9290244,38.0943396 C80.7526974,38.0943396 80.6097561,37.9513983 80.6097561,37.7750713 L80.6097561,36.4890796 C80.6097561,36.3127526 80.7526974,36.1698113 80.9290244,36.1698113 L88.8514634,36.1698113 Z M96.9214542,29.9252992 C97.1679074,30.1473755 97.2006958,30.5102912 97.0100346,30.7693763 L96.9577085,30.8318429 L93.955175,33.9938756 C93.7149881,34.2468216 93.3173656,34.2669975 93.0521541,34.0527971 L92.9934339,33.9992049 L91.5458388,32.509083 C91.2958491,32.2517492 91.3073396,31.8457222 91.5715036,31.6021962 C91.8153474,31.377403 92.1892511,31.3696489 92.4419556,31.572186 L92.5024613,31.6271975 L93.4657073,32.6194399 L95.9908488,29.960616 C96.2378171,29.7005284 96.6544633,29.6847165 96.9214542,29.9252992 Z M88.8514634,31.0377358 C89.0277904,31.0377358 89.1707317,31.1806771 89.1707317,31.3570042 L89.1707317,32.6429958 C89.1707317,32.8193229 89.0277904,32.9622642 88.8514634,32.9622642 L80.9290244,32.9622642 C80.7526974,32.9622642 80.6097561,32.8193229 80.6097561,32.6429958 L80.6097561,31.3570042 C80.6097561,31.1806771 80.7526974,31.0377358 80.9290244,31.0377358 L88.8514634,31.0377358 Z M96.9214542,24.5721611 C97.1679074,24.7942374 97.2006958,25.1571532 97.0100346,25.4162383 L96.9577085,25.4787048 L93.955175,28.6407375 C93.7149881,28.8936836 93.3173656,28.9138594 93.0521541,28.699659 L92.9934339,28.6460669 L91.5458388,27.155945 C91.2958491,26.8986112 91.3073396,26.4925841 91.5715036,26.2490582 C91.8153474,26.024265 92.1892511,26.0165108 92.4419556,26.219048 L92.5024613,26.2740594 L93.4657073,27.2663019 L95.9908488,24.607478 C96.2378171,24.3473904 96.6544633,24.3315785 96.9214542,24.5721611 Z M88.8514634,25.9056604 C89.0277904,25.9056604 89.1707317,26.0486017 89.1707317,26.2249287 L89.1707317,27.5109204 C89.1707317,27.6872474 89.0277904,27.8301887 88.8514634,27.8301887 L80.9290244,27.8301887 C80.7526974,27.8301887 80.6097561,27.6872474 80.6097561,27.5109204 L80.6097561,26.2249287 C80.6097561,26.0486017 80.7526974,25.9056604 80.9290244,25.9056604 L88.8514634,25.9056604 Z M89.4341463,16.2830189 C88.7067469,16.2830189 88.1170732,16.857446 88.1170732,17.5660377 C88.1170732,18.2746295 88.7067469,18.8490566 89.4341463,18.8490566 C90.1615458,18.8490566 90.7512195,18.2746295 90.7512195,17.5660377 C90.7512195,16.857446 90.1615458,16.2830189 89.4341463,16.2830189 Z" id="1-Integrity"></path>
                    </g>
                </g>
            </g>
        </g>
    </g>
</svg>
