<?xml version="1.0" standalone="no"?>
<!DOCTYPE svg PUBLIC "-//W3C//DTD SVG 20010904//EN"
 "http://www.w3.org/TR/2001/REC-SVG-20010904/DTD/svg10.dtd">
<svg version="1.0" xmlns="http://www.w3.org/2000/svg"
 width="512.000000pt" height="512.000000pt" viewBox="0 0 512.000000 512.000000"
 preserveAspectRatio="xMidYMid meet">
<metadata>
Created by potrace 1.16, written by Peter Selinger 2001-2019
</metadata>
<g transform="translate(0.000000,512.000000) scale(0.100000,-0.100000)"
fill="#6F3BA3" stroke="none">
<path d="M2150 4205 c-350 -707 -396 -795 -419 -799 -14 -3 -399 -64 -856
-136 -912 -143 -878 -137 -873 -150 2 -4 286 -286 633 -625 347 -340 629 -622
628 -629 -65 -394 -273 -1739 -269 -1743 2 -3 358 180 791 405 l786 411 792
-404 c435 -222 793 -402 795 -400 2 2 -62 398 -144 880 l-148 876 629 629
c346 346 627 631 625 634 -3 2 -396 61 -875 132 -478 70 -875 132 -881 138 -6
6 -190 363 -409 794 -219 430 -401 782 -405 782 -3 0 -184 -358 -400 -795z"/>
</g>
</svg>
