<?xml version="1.0" standalone="no"?>
<!DOCTYPE svg PUBLIC "-//W3C//DTD SVG 20010904//EN"
 "http://www.w3.org/TR/2001/REC-SVG-20010904/DTD/svg10.dtd">
<svg version="1.0" xmlns="http://www.w3.org/2000/svg"
 width="1088.000000pt" height="1024.000000pt" viewBox="0 0 1088.000000 1024.000000"
 preserveAspectRatio="xMidYMid meet">
<metadata>
Created by potrace 1.16, written by Peter Selinger 2001-2019
</metadata>
<g transform="translate(0.000000,1024.000000) scale(0.100000,-0.100000)"
fill="#6F3BA3" stroke="none">
<path d="M5289 10238 c0 -2 -296 -840 -657 -1863 l-657 -1860 -1988 -3 -1987
-2 0 -43 0 -43 1533 -1204 c842 -662 1533 -1204 1535 -1205 1 -1 -251 -866
-562 -1921 -310 -1056 -563 -1920 -561 -1922 2 -2 760 501 1685 1118 925 617
1688 1124 1695 1126 7 3 773 -501 1701 -1120 929 -619 1690 -1122 1692 -1117
2 5 -249 866 -558 1914 -308 1048 -560 1909 -560 1914 0 4 713 568 1585 1253
l1585 1245 -2038 3 -2038 2 -594 1683 c-326 925 -622 1764 -658 1865 l-65 182
-43 0 c-24 0 -44 -1 -45 -2z m656 -2280 l588 -1668 1795 -2 1796 -3 -1393
-1094 c-1300 -1021 -1392 -1096 -1386 -1119 3 -14 227 -774 496 -1690 269
-916 488 -1668 487 -1672 -2 -4 -673 440 -1493 987 -819 546 -1497 992 -1505
990 -9 -2 -685 -450 -1504 -996 -818 -546 -1489 -991 -1491 -989 -2 2 222 766
496 1698 483 1643 498 1695 479 1710 -10 8 -637 501 -1393 1095 l-1374 1080
1796 3 1796 2 589 1673 c325 919 594 1683 600 1696 l10 24 12 -29 c6 -16 276
-779 599 -1696z"/>
</g>
</svg>
